G04 #@! TF.GenerationSoftware,KiCad,Pcbnew,5.1.5+dfsg1-2build2*
G04 #@! TF.CreationDate,2021-10-03T17:02:51+02:00*
G04 #@! TF.ProjectId,board6502,626f6172-6436-4353-9032-2e6b69636164,rev?*
G04 #@! TF.SameCoordinates,Original*
G04 #@! TF.FileFunction,Copper,L2,Bot*
G04 #@! TF.FilePolarity,Positive*
%FSLAX46Y46*%
G04 Gerber Fmt 4.6, Leading zero omitted, Abs format (unit mm)*
G04 Created by KiCad (PCBNEW 5.1.5+dfsg1-2build2) date 2021-10-03 17:02:51*
%MOMM*%
%LPD*%
G04 APERTURE LIST*
%ADD10C,1.600000*%
%ADD11O,1.600000X1.600000*%
%ADD12R,1.600000X1.600000*%
%ADD13R,1.700000X1.700000*%
%ADD14O,1.700000X1.700000*%
%ADD15C,1.700000*%
%ADD16C,3.500000*%
%ADD17R,2.200000X2.200000*%
%ADD18O,2.200000X2.200000*%
%ADD19C,2.200000*%
%ADD20R,2.000000X1.440000*%
%ADD21O,2.000000X1.440000*%
%ADD22C,1.500000*%
%ADD23C,0.700000*%
%ADD24C,0.254000*%
%ADD25C,0.508000*%
%ADD26C,0.152400*%
G04 APERTURE END LIST*
D10*
X102500000Y-40800000D03*
D11*
X102500000Y-38260000D03*
D12*
X81000000Y-114800000D03*
D11*
X73380000Y-81780000D03*
X81000000Y-112260000D03*
X73380000Y-84320000D03*
X81000000Y-109720000D03*
X73380000Y-86860000D03*
X81000000Y-107180000D03*
X73380000Y-89400000D03*
X81000000Y-104640000D03*
X73380000Y-91940000D03*
X81000000Y-102100000D03*
X73380000Y-94480000D03*
X81000000Y-99560000D03*
X73380000Y-97020000D03*
X81000000Y-97020000D03*
X73380000Y-99560000D03*
X81000000Y-94480000D03*
X73380000Y-102100000D03*
X81000000Y-91940000D03*
X73380000Y-104640000D03*
X81000000Y-89400000D03*
X73380000Y-107180000D03*
X81000000Y-86860000D03*
X73380000Y-109720000D03*
X81000000Y-84320000D03*
X73380000Y-112260000D03*
X81000000Y-81780000D03*
X73380000Y-114800000D03*
X120560000Y-90400000D03*
X135800000Y-42140000D03*
X120560000Y-87860000D03*
X135800000Y-44680000D03*
X120560000Y-85320000D03*
X135800000Y-47220000D03*
X120560000Y-82780000D03*
X135800000Y-49760000D03*
X120560000Y-80240000D03*
X135800000Y-52300000D03*
X120560000Y-77700000D03*
X135800000Y-54840000D03*
X120560000Y-75160000D03*
X135800000Y-57380000D03*
X120560000Y-72620000D03*
X135800000Y-59920000D03*
X120560000Y-70080000D03*
X135800000Y-62460000D03*
X120560000Y-67540000D03*
X135800000Y-65000000D03*
X120560000Y-65000000D03*
X135800000Y-67540000D03*
X120560000Y-62460000D03*
X135800000Y-70080000D03*
X120560000Y-59920000D03*
X135800000Y-72620000D03*
X120560000Y-57380000D03*
X135800000Y-75160000D03*
X120560000Y-54840000D03*
X135800000Y-77700000D03*
X120560000Y-52300000D03*
X135800000Y-80240000D03*
X120560000Y-49760000D03*
X135800000Y-82780000D03*
X120560000Y-47220000D03*
X135800000Y-85320000D03*
X120560000Y-44680000D03*
X135800000Y-87860000D03*
X120560000Y-42140000D03*
D12*
X135800000Y-90400000D03*
D13*
X115200000Y-36600000D03*
D14*
X115200000Y-34060000D03*
X117740000Y-36600000D03*
X117740000Y-34060000D03*
X120280000Y-36600000D03*
X120280000Y-34060000D03*
X122820000Y-36600000D03*
X122820000Y-34060000D03*
X125360000Y-36600000D03*
X125360000Y-34060000D03*
X127900000Y-36600000D03*
X127900000Y-34060000D03*
X130440000Y-36600000D03*
X130440000Y-34060000D03*
X132980000Y-36600000D03*
X132980000Y-34060000D03*
X135520000Y-36600000D03*
X135520000Y-34060000D03*
D13*
X59500000Y-38800000D03*
D15*
X62000000Y-38800000D03*
X62000000Y-36800000D03*
X59500000Y-36800000D03*
D16*
X54730000Y-34090000D03*
X66770000Y-34090000D03*
D14*
X57960000Y-125340000D03*
X57960000Y-122800000D03*
X60500000Y-125340000D03*
X60500000Y-122800000D03*
X63040000Y-125340000D03*
X63040000Y-122800000D03*
X65580000Y-125340000D03*
X65580000Y-122800000D03*
X68120000Y-125340000D03*
X68120000Y-122800000D03*
X70660000Y-125340000D03*
X70660000Y-122800000D03*
X73200000Y-125340000D03*
X73200000Y-122800000D03*
X75740000Y-125340000D03*
X75740000Y-122800000D03*
X78280000Y-125340000D03*
X78280000Y-122800000D03*
X80820000Y-125340000D03*
X80820000Y-122800000D03*
X83360000Y-125340000D03*
X83360000Y-122800000D03*
X85900000Y-125340000D03*
X85900000Y-122800000D03*
X88440000Y-125340000D03*
X88440000Y-122800000D03*
X90980000Y-125340000D03*
X90980000Y-122800000D03*
X93520000Y-125340000D03*
X93520000Y-122800000D03*
X96060000Y-125340000D03*
X96060000Y-122800000D03*
X98600000Y-125340000D03*
D13*
X98600000Y-122800000D03*
D10*
X141000000Y-106800000D03*
X141000000Y-111800000D03*
X124200000Y-50600000D03*
X124200000Y-55600000D03*
X75000000Y-77800000D03*
X80000000Y-77800000D03*
D12*
X63600000Y-43400000D03*
D10*
X63600000Y-45900000D03*
X72400000Y-59800000D03*
X67400000Y-59800000D03*
X112800000Y-62000000D03*
X112800000Y-57000000D03*
X131600000Y-101200000D03*
X131600000Y-106200000D03*
X58800000Y-79000000D03*
X58800000Y-74000000D03*
X63600000Y-50900000D03*
D12*
X63600000Y-53400000D03*
D10*
X104200000Y-119800000D03*
X104200000Y-124800000D03*
X115200000Y-105400000D03*
X115200000Y-100400000D03*
X89800000Y-40600000D03*
X84800000Y-40600000D03*
D17*
X81200000Y-42400000D03*
D18*
X81200000Y-39860000D03*
D13*
X141000000Y-95000000D03*
D14*
X141000000Y-97540000D03*
X141000000Y-100080000D03*
X141000000Y-102620000D03*
X47660000Y-39800000D03*
D13*
X50200000Y-39800000D03*
X139400000Y-62600000D03*
D14*
X139400000Y-60060000D03*
D13*
X139400000Y-52200000D03*
D14*
X139400000Y-54740000D03*
X62200000Y-61340000D03*
D13*
X62200000Y-58800000D03*
D11*
X107000000Y-38260000D03*
D10*
X107000000Y-40800000D03*
D11*
X98000000Y-38260000D03*
D10*
X98000000Y-40800000D03*
D11*
X70260000Y-54750000D03*
D10*
X72800000Y-54750000D03*
X70750000Y-48200000D03*
D11*
X73290000Y-48200000D03*
D10*
X70750000Y-51400000D03*
D11*
X73290000Y-51400000D03*
X142540000Y-115400000D03*
D10*
X140000000Y-115400000D03*
X70750000Y-44800000D03*
D11*
X73290000Y-44800000D03*
D10*
X76800000Y-42400000D03*
D11*
X76800000Y-39860000D03*
X93500000Y-38260000D03*
D10*
X93500000Y-40800000D03*
D15*
X73100000Y-33800000D03*
X77600000Y-33800000D03*
D19*
X71850000Y-36300000D03*
X78850000Y-36300000D03*
X88850000Y-36300000D03*
X81850000Y-36300000D03*
D15*
X87600000Y-33800000D03*
X83100000Y-33800000D03*
D12*
X88600000Y-45800000D03*
D11*
X96220000Y-61040000D03*
X88600000Y-48340000D03*
X96220000Y-58500000D03*
X88600000Y-50880000D03*
X96220000Y-55960000D03*
X88600000Y-53420000D03*
X96220000Y-53420000D03*
X88600000Y-55960000D03*
X96220000Y-50880000D03*
X88600000Y-58500000D03*
X96220000Y-48340000D03*
X88600000Y-61040000D03*
X96220000Y-45800000D03*
D12*
X77200000Y-45800000D03*
D11*
X84820000Y-61040000D03*
X77200000Y-48340000D03*
X84820000Y-58500000D03*
X77200000Y-50880000D03*
X84820000Y-55960000D03*
X77200000Y-53420000D03*
X84820000Y-53420000D03*
X77200000Y-55960000D03*
X84820000Y-50880000D03*
X77200000Y-58500000D03*
X84820000Y-48340000D03*
X77200000Y-61040000D03*
X84820000Y-45800000D03*
X107620000Y-45800000D03*
X100000000Y-61040000D03*
X107620000Y-48340000D03*
X100000000Y-58500000D03*
X107620000Y-50880000D03*
X100000000Y-55960000D03*
X107620000Y-53420000D03*
X100000000Y-53420000D03*
X107620000Y-55960000D03*
X100000000Y-50880000D03*
X107620000Y-58500000D03*
X100000000Y-48340000D03*
X107620000Y-61040000D03*
D12*
X100000000Y-45800000D03*
X135800000Y-128200000D03*
D11*
X120560000Y-95180000D03*
X135800000Y-125660000D03*
X120560000Y-97720000D03*
X135800000Y-123120000D03*
X120560000Y-100260000D03*
X135800000Y-120580000D03*
X120560000Y-102800000D03*
X135800000Y-118040000D03*
X120560000Y-105340000D03*
X135800000Y-115500000D03*
X120560000Y-107880000D03*
X135800000Y-112960000D03*
X120560000Y-110420000D03*
X135800000Y-110420000D03*
X120560000Y-112960000D03*
X135800000Y-107880000D03*
X120560000Y-115500000D03*
X135800000Y-105340000D03*
X120560000Y-118040000D03*
X135800000Y-102800000D03*
X120560000Y-120580000D03*
X135800000Y-100260000D03*
X120560000Y-123120000D03*
X135800000Y-97720000D03*
X120560000Y-125660000D03*
X135800000Y-95180000D03*
X120560000Y-128200000D03*
D12*
X47600000Y-66500000D03*
D11*
X62840000Y-114760000D03*
X47600000Y-69040000D03*
X62840000Y-112220000D03*
X47600000Y-71580000D03*
X62840000Y-109680000D03*
X47600000Y-74120000D03*
X62840000Y-107140000D03*
X47600000Y-76660000D03*
X62840000Y-104600000D03*
X47600000Y-79200000D03*
X62840000Y-102060000D03*
X47600000Y-81740000D03*
X62840000Y-99520000D03*
X47600000Y-84280000D03*
X62840000Y-96980000D03*
X47600000Y-86820000D03*
X62840000Y-94440000D03*
X47600000Y-89360000D03*
X62840000Y-91900000D03*
X47600000Y-91900000D03*
X62840000Y-89360000D03*
X47600000Y-94440000D03*
X62840000Y-86820000D03*
X47600000Y-96980000D03*
X62840000Y-84280000D03*
X47600000Y-99520000D03*
X62840000Y-81740000D03*
X47600000Y-102060000D03*
X62840000Y-79200000D03*
X47600000Y-104600000D03*
X62840000Y-76660000D03*
X47600000Y-107140000D03*
X62840000Y-74120000D03*
X47600000Y-109680000D03*
X62840000Y-71580000D03*
X47600000Y-112220000D03*
X62840000Y-69040000D03*
X47600000Y-114760000D03*
X62840000Y-66500000D03*
D20*
X108800000Y-105400000D03*
D21*
X93560000Y-105400000D03*
X108800000Y-102860000D03*
X93560000Y-102860000D03*
X108800000Y-100320000D03*
X93560000Y-100320000D03*
X108800000Y-97780000D03*
X93560000Y-97780000D03*
X108800000Y-95240000D03*
X93560000Y-95240000D03*
X108800000Y-92700000D03*
X93560000Y-92700000D03*
X108800000Y-90160000D03*
X93560000Y-90160000D03*
X108800000Y-87620000D03*
X93560000Y-87620000D03*
X108800000Y-85080000D03*
X93560000Y-85080000D03*
X108800000Y-82540000D03*
X93560000Y-82540000D03*
X108800000Y-80000000D03*
X93560000Y-80000000D03*
X108800000Y-77460000D03*
X93560000Y-77460000D03*
X108800000Y-74920000D03*
X93560000Y-74920000D03*
X108800000Y-72380000D03*
X93560000Y-72380000D03*
D12*
X49000000Y-44800000D03*
D10*
X56620000Y-44800000D03*
X56620000Y-60040000D03*
X49000000Y-60040000D03*
D22*
X141100000Y-126300000D03*
X141100000Y-121400000D03*
D23*
X125400000Y-97800000D03*
X129534000Y-97866000D03*
X112800000Y-72400000D03*
X114400000Y-97800000D03*
X100000000Y-78800000D03*
X52440000Y-114760000D03*
X56600000Y-57400000D03*
X98600000Y-105400000D03*
X98600000Y-96200000D03*
X98600000Y-102800000D03*
X53600000Y-84200000D03*
X73380000Y-121180000D03*
X53600000Y-118400000D03*
X65838219Y-75361781D03*
X50408002Y-120791998D03*
X128800000Y-90400000D03*
X129200000Y-87800000D03*
X65000000Y-41400000D03*
X127960000Y-75160000D03*
X128000000Y-66400000D03*
X127960000Y-120440000D03*
X100465999Y-122065999D03*
X96909999Y-96309999D03*
X118800000Y-83000000D03*
X138000000Y-86600000D03*
X137200000Y-84600000D03*
X97900000Y-98700000D03*
X97514000Y-95486000D03*
X117980000Y-87620000D03*
X103100000Y-101100000D03*
X91000000Y-101400000D03*
X117160000Y-90160000D03*
X103800000Y-101800000D03*
X95600000Y-102400000D03*
X72000000Y-106400000D03*
X76320000Y-109720000D03*
X77600000Y-106000000D03*
X104600000Y-107200000D03*
X91004211Y-105795789D03*
X115900000Y-92700000D03*
X114400000Y-51400000D03*
X92415999Y-114815999D03*
X49804001Y-116795999D03*
X92415999Y-116784001D03*
X105400000Y-112600000D03*
X90200000Y-114800000D03*
X49200000Y-113000000D03*
X88340000Y-112260000D03*
X106200000Y-110400000D03*
X87335999Y-108864001D03*
X106935999Y-108864001D03*
X71300000Y-109500000D03*
X85800000Y-97600000D03*
X101700000Y-58500000D03*
X99400000Y-97800000D03*
X83365999Y-111165999D03*
X83365999Y-104834001D03*
X87034001Y-104834001D03*
X87034001Y-95234001D03*
X99374010Y-104425990D03*
X102304001Y-56710973D03*
X83905999Y-113705999D03*
X83800000Y-102200000D03*
X84000000Y-88600000D03*
X103180000Y-53420000D03*
X103180000Y-85780000D03*
X84545999Y-115854001D03*
X84545999Y-93854001D03*
X84545999Y-99454001D03*
X100200000Y-88800000D03*
X80820000Y-117620000D03*
X62800000Y-117600000D03*
X108800000Y-114600000D03*
X110054001Y-48254001D03*
X82600000Y-109800000D03*
X78280000Y-117520000D03*
X65200000Y-117400000D03*
X78280000Y-92080000D03*
X91740000Y-91940000D03*
X66000000Y-104600000D03*
X66000000Y-95200000D03*
X66000000Y-118000000D03*
X77000000Y-118000000D03*
X86054001Y-93145999D03*
X75574001Y-85374001D03*
X75574001Y-89374001D03*
X79085999Y-87914001D03*
X74800000Y-88600000D03*
X74800000Y-86000000D03*
X72200000Y-90800000D03*
X73220000Y-72380000D03*
X73220000Y-65420000D03*
X70560000Y-94440000D03*
X70560000Y-74440000D03*
X70560000Y-84440000D03*
X70600000Y-65600000D03*
X69555999Y-97155999D03*
X69555999Y-86844001D03*
X69400000Y-65600000D03*
X69600000Y-75400000D03*
X67400000Y-99400000D03*
X67400000Y-89600000D03*
X67400000Y-83200000D03*
X67400000Y-65600000D03*
X67775999Y-101624001D03*
X67800000Y-91800000D03*
X68400000Y-65600000D03*
X76400000Y-90600000D03*
X76400000Y-87000000D03*
X68000000Y-57000000D03*
X124400000Y-127200000D03*
X124400000Y-124400000D03*
X66684001Y-74484001D03*
X115745999Y-46854001D03*
X115745999Y-52145999D03*
X93800000Y-63200000D03*
X60000000Y-111800000D03*
X96000000Y-118400000D03*
X61604001Y-118995999D03*
X46400000Y-75400000D03*
X76400000Y-96600000D03*
X76000000Y-52200000D03*
X60600000Y-98000000D03*
X126400000Y-50000000D03*
X117814001Y-59985999D03*
X116555999Y-124444001D03*
X91000000Y-90200000D03*
X107620000Y-67380000D03*
X84400000Y-67400000D03*
X126600000Y-53600000D03*
X126600000Y-126000000D03*
X104000000Y-85000000D03*
X81000000Y-79200000D03*
D24*
X72400000Y-59700000D02*
X72400000Y-59800000D01*
X135800000Y-91454000D02*
X135800000Y-90400000D01*
X100024810Y-61064810D02*
X100000000Y-61040000D01*
X125400000Y-97800000D02*
X125400000Y-97800000D01*
X129534000Y-97866000D02*
X129534000Y-97720000D01*
X112800000Y-72400000D02*
X112800000Y-72400000D01*
X114400000Y-97800000D02*
X114400000Y-97800000D01*
D25*
X100000000Y-61040000D02*
X100000000Y-78800000D01*
X52440000Y-63480000D02*
X49000000Y-60040000D01*
X58800000Y-74000000D02*
X52400000Y-74000000D01*
X52400000Y-74000000D02*
X52440000Y-63480000D01*
X52440000Y-114760000D02*
X52400000Y-74000000D01*
X52440000Y-119820000D02*
X57960000Y-125340000D01*
X52440000Y-114760000D02*
X52440000Y-119820000D01*
X57960000Y-125340000D02*
X60420000Y-127800000D01*
X134492000Y-128200000D02*
X135800000Y-128200000D01*
X133260199Y-129431801D02*
X134492000Y-128200000D01*
X119431801Y-129431801D02*
X133260199Y-129431801D01*
X104200000Y-124800000D02*
X104200000Y-127600000D01*
X104200000Y-127600000D02*
X104000000Y-127800000D01*
X60420000Y-127800000D02*
X104000000Y-127800000D01*
X53960000Y-60040000D02*
X49000000Y-60040000D01*
X56600000Y-57400000D02*
X53960000Y-60040000D01*
X112800000Y-72400000D02*
X112800000Y-62000000D01*
X112800000Y-96200000D02*
X114400000Y-97800000D01*
X112800000Y-72400000D02*
X112800000Y-96200000D01*
X125400000Y-56800000D02*
X125400000Y-97800000D01*
X124200000Y-55600000D02*
X125400000Y-56800000D01*
X134492000Y-90400000D02*
X135800000Y-90400000D01*
X129534000Y-95358000D02*
X134492000Y-90400000D01*
X129534000Y-97866000D02*
X129534000Y-95358000D01*
X129534000Y-104134000D02*
X131600000Y-106200000D01*
X129534000Y-97866000D02*
X129534000Y-104134000D01*
X109200000Y-123400000D02*
X104800000Y-127800000D01*
X104000000Y-127800000D02*
X104800000Y-127800000D01*
X109200000Y-123400000D02*
X115200000Y-117400000D01*
X115200000Y-117400000D02*
X115200000Y-105400000D01*
X115200000Y-117400000D02*
X115200000Y-124400000D01*
X115200000Y-124400000D02*
X118000000Y-127200000D01*
X118000000Y-128000000D02*
X119431801Y-129431801D01*
X118000000Y-127200000D02*
X118000000Y-128000000D01*
D24*
X72450000Y-54750000D02*
X72800000Y-54750000D01*
X73200000Y-114980000D02*
X73380000Y-114800000D01*
D25*
X53600000Y-84200000D02*
X53600000Y-84200000D01*
X53600000Y-85000000D02*
X53600000Y-84200000D01*
X53600000Y-85000000D02*
X53600000Y-118400000D01*
X53600000Y-84200000D02*
X58800000Y-79000000D01*
X66600001Y-60599999D02*
X67400000Y-59800000D01*
X65838219Y-61361781D02*
X66600001Y-60599999D01*
X65838219Y-75484847D02*
X65838219Y-75361781D01*
X58800000Y-79000000D02*
X59831801Y-77968199D01*
X62292000Y-53400000D02*
X63600000Y-53400000D01*
X60768199Y-54923801D02*
X62292000Y-53400000D01*
X59831801Y-77968199D02*
X60768199Y-77968199D01*
X60768199Y-77968199D02*
X60768199Y-54923801D01*
X60768199Y-48948199D02*
X56620000Y-44800000D01*
X60768199Y-54923801D02*
X60768199Y-48948199D01*
X73380000Y-114800000D02*
X73380000Y-120420000D01*
X73380000Y-120420000D02*
X73380000Y-121180000D01*
X73380000Y-121180000D02*
X73380000Y-121180000D01*
X53600000Y-118400000D02*
X53600000Y-118400000D01*
X60768199Y-77968199D02*
X63354867Y-77968199D01*
X63354867Y-77968199D02*
X65838219Y-75484847D01*
X65838219Y-75361781D02*
X65838219Y-61361781D01*
X98600000Y-95705026D02*
X98600000Y-96200000D01*
X98600000Y-48896934D02*
X98600000Y-95705026D01*
X96220000Y-46516934D02*
X98600000Y-48896934D01*
X96220000Y-45800000D02*
X96220000Y-46516934D01*
X98949999Y-102450001D02*
X98600000Y-102800000D01*
X98949999Y-98592933D02*
X98949999Y-102450001D01*
X98600000Y-98242934D02*
X98949999Y-98592933D01*
X98600000Y-96200000D02*
X98600000Y-98242934D01*
X98250001Y-105050001D02*
X98600000Y-105400000D01*
X98250001Y-104392933D02*
X98250001Y-105050001D01*
X98600000Y-104042934D02*
X98250001Y-104392933D01*
X98600000Y-102800000D02*
X98600000Y-104042934D01*
X98600000Y-115331370D02*
X98600000Y-114800000D01*
X103068630Y-119800000D02*
X98600000Y-115331370D01*
X104200000Y-119800000D02*
X103068630Y-119800000D01*
X98600000Y-114800000D02*
X98600000Y-122800000D01*
X98600000Y-105400000D02*
X98600000Y-114800000D01*
X107620000Y-41420000D02*
X107000000Y-40800000D01*
X107620000Y-45800000D02*
X107620000Y-41420000D01*
X112800000Y-55868630D02*
X112800000Y-57000000D01*
X112800000Y-49387644D02*
X112800000Y-55868630D01*
X109212356Y-45800000D02*
X112800000Y-49387644D01*
X107620000Y-45800000D02*
X109212356Y-45800000D01*
X136369999Y-34909999D02*
X135520000Y-34060000D01*
X136801801Y-35341801D02*
X136369999Y-34909999D01*
X136801801Y-41138199D02*
X136801801Y-35341801D01*
X135800000Y-42140000D02*
X136801801Y-41138199D01*
X84020001Y-45000001D02*
X84820000Y-45800000D01*
X83588199Y-44568199D02*
X84020001Y-45000001D01*
X77145133Y-44568199D02*
X83588199Y-44568199D01*
X76145133Y-43568199D02*
X77145133Y-44568199D01*
X71981801Y-43568199D02*
X76145133Y-43568199D01*
X70750000Y-44800000D02*
X71981801Y-43568199D01*
D26*
X50408002Y-82008002D02*
X50408002Y-120791998D01*
X47600000Y-79200000D02*
X50408002Y-82008002D01*
X128450001Y-90050001D02*
X128800000Y-90400000D01*
X128450001Y-87656077D02*
X128450001Y-90050001D01*
X128766507Y-87339571D02*
X128450001Y-87656077D01*
X128766507Y-45433493D02*
X128766507Y-87339571D01*
X117797600Y-40200000D02*
X123533014Y-40200000D01*
X123533014Y-40200000D02*
X128766507Y-45433493D01*
X115200000Y-37602400D02*
X117797600Y-40200000D01*
X115200000Y-36600000D02*
X115200000Y-37602400D01*
X116304001Y-36797923D02*
X119306078Y-39800000D01*
X116304001Y-35164001D02*
X116304001Y-36797923D01*
X115200000Y-34060000D02*
X116304001Y-35164001D01*
X119306078Y-39800000D02*
X123600000Y-39800000D01*
X123600000Y-39800000D02*
X129200000Y-45400000D01*
X129200000Y-45400000D02*
X129200000Y-82333013D01*
X129200000Y-82333013D02*
X129200000Y-87800000D01*
X129200000Y-87800000D02*
X129200000Y-87800000D01*
X135000001Y-87060001D02*
X135800000Y-87860000D01*
X129566507Y-81626507D02*
X135800000Y-87860000D01*
X129566507Y-45233493D02*
X129566507Y-81626507D01*
X123733014Y-39400000D02*
X129566507Y-45233493D01*
X120540000Y-39400000D02*
X123733014Y-39400000D01*
X117740000Y-36600000D02*
X120540000Y-39400000D01*
X135000001Y-84520001D02*
X135800000Y-85320000D01*
X120846078Y-38800000D02*
X123533013Y-38800000D01*
X118844001Y-36797923D02*
X120846078Y-38800000D01*
X118844001Y-35164001D02*
X118844001Y-36797923D01*
X117740000Y-34060000D02*
X118844001Y-35164001D01*
X123663223Y-38930210D02*
X123730210Y-38930210D01*
X123533013Y-38800000D02*
X123663223Y-38930210D01*
X123730210Y-38930210D02*
X130000000Y-45200000D01*
X130000000Y-79520000D02*
X130000000Y-45200000D01*
X135800000Y-85320000D02*
X130000000Y-79520000D01*
X135000001Y-81980001D02*
X135800000Y-82780000D01*
X132205999Y-79185999D02*
X135000001Y-81980001D01*
X130339580Y-77319580D02*
X135800000Y-82780000D01*
X130339580Y-45053552D02*
X130339580Y-77319580D01*
X123886028Y-38600000D02*
X130339580Y-45053552D01*
X123800000Y-38600000D02*
X123886028Y-38600000D01*
X123600000Y-38400000D02*
X123800000Y-38600000D01*
X122519092Y-38400000D02*
X123600000Y-38400000D01*
X121129999Y-37449999D02*
X121569091Y-37449999D01*
X121569091Y-37449999D02*
X122519092Y-38400000D01*
X120280000Y-36600000D02*
X121129999Y-37449999D01*
X135000001Y-79440001D02*
X135800000Y-80240000D01*
X122586078Y-38000000D02*
X123753014Y-38000000D01*
X121384001Y-36797923D02*
X122586078Y-38000000D01*
X121384001Y-35164001D02*
X121384001Y-36797923D01*
X120280000Y-34060000D02*
X121384001Y-35164001D01*
X123753014Y-38000000D02*
X130669790Y-44916776D01*
X130669790Y-75109790D02*
X135800000Y-80240000D01*
X130669790Y-44916776D02*
X130669790Y-75109790D01*
X122820000Y-36600000D02*
X131000000Y-44780000D01*
X131000000Y-72900000D02*
X135800000Y-77700000D01*
X131000000Y-44780000D02*
X131000000Y-72900000D01*
X135000001Y-74360001D02*
X135800000Y-75160000D01*
X123669999Y-34909999D02*
X122820000Y-34060000D01*
X123924001Y-35164001D02*
X123669999Y-34909999D01*
X123924001Y-36924001D02*
X123924001Y-35164001D01*
X131339580Y-44339580D02*
X123924001Y-36924001D01*
X131339580Y-70699580D02*
X131339580Y-44339580D01*
X135800000Y-75160000D02*
X131339580Y-70699580D01*
X125360000Y-37802081D02*
X131669790Y-44111871D01*
X125360000Y-36600000D02*
X125360000Y-37802081D01*
X135000001Y-71820001D02*
X135800000Y-72620000D01*
X134745999Y-71565999D02*
X135000001Y-71820001D01*
X134745999Y-70345999D02*
X134745999Y-71565999D01*
X131669790Y-67269790D02*
X134745999Y-70345999D01*
X131669790Y-44111871D02*
X131669790Y-67269790D01*
X135000001Y-69280001D02*
X135800000Y-70080000D01*
X126464001Y-35164001D02*
X126464001Y-37264001D01*
X125360000Y-34060000D02*
X126464001Y-35164001D01*
X126464001Y-37264001D02*
X132000000Y-42800000D01*
X132000000Y-66280000D02*
X135800000Y-70080000D01*
X132000000Y-42800000D02*
X132000000Y-66280000D01*
X127900000Y-36600000D02*
X132400000Y-41100000D01*
X132400000Y-53980000D02*
X135800000Y-57380000D01*
X132400000Y-41100000D02*
X132400000Y-53980000D01*
X129004001Y-35164001D02*
X129004001Y-36804001D01*
X127900000Y-34060000D02*
X129004001Y-35164001D01*
X129004001Y-36804001D02*
X132800000Y-40600000D01*
X132800000Y-51840000D02*
X135800000Y-54840000D01*
X132800000Y-40600000D02*
X132800000Y-51840000D01*
X130440000Y-36600000D02*
X133169579Y-39329579D01*
X133169579Y-49669579D02*
X135800000Y-52300000D01*
X133169579Y-39329579D02*
X133169579Y-49669579D01*
X131875999Y-37075999D02*
X133499789Y-38699789D01*
X131875999Y-35495999D02*
X131875999Y-37075999D01*
X130440000Y-34060000D02*
X131875999Y-35495999D01*
X133499789Y-47459789D02*
X135800000Y-49760000D01*
X133499789Y-38699789D02*
X133499789Y-47459789D01*
X135000001Y-46420001D02*
X135800000Y-47220000D01*
X133829999Y-45249999D02*
X135000001Y-46420001D01*
X133829999Y-37449999D02*
X133829999Y-45249999D01*
X132980000Y-36600000D02*
X133829999Y-37449999D01*
X135000001Y-43880001D02*
X135800000Y-44680000D01*
X134415999Y-43295999D02*
X135000001Y-43880001D01*
X134415999Y-35495999D02*
X134415999Y-43295999D01*
X132980000Y-34060000D02*
X134415999Y-35495999D01*
X62840000Y-66500000D02*
X65000000Y-64340000D01*
X65000000Y-64340000D02*
X65000000Y-41400000D01*
X65000000Y-41400000D02*
X65000000Y-41400000D01*
X128000000Y-66400000D02*
X128400000Y-66800000D01*
X128400000Y-74720000D02*
X127960000Y-75160000D01*
X128400000Y-66800000D02*
X128400000Y-74720000D01*
X127960000Y-75160000D02*
X127960000Y-120440000D01*
X99449999Y-124490001D02*
X98600000Y-125340000D01*
X100116000Y-123824000D02*
X99449999Y-124490001D01*
X100116000Y-122415998D02*
X100116000Y-123824000D01*
X100465999Y-122065999D02*
X100116000Y-122415998D01*
X96909999Y-121950001D02*
X96909999Y-96309999D01*
X96060000Y-122800000D02*
X96909999Y-121950001D01*
X96909999Y-96309999D02*
X97000000Y-96219998D01*
X96909999Y-96309999D02*
X96909999Y-96309999D01*
X118800000Y-83560000D02*
X118800000Y-83000000D01*
X120560000Y-85320000D02*
X118800000Y-83560000D01*
X138000000Y-95520000D02*
X135800000Y-97720000D01*
X138000000Y-86600000D02*
X138000000Y-95520000D01*
X96060000Y-125140000D02*
X96060000Y-125340000D01*
X97495999Y-123704001D02*
X96060000Y-125140000D01*
X137200000Y-93780000D02*
X135800000Y-95180000D01*
X137200000Y-84600000D02*
X137200000Y-93780000D01*
X97495999Y-99304001D02*
X97495999Y-99104001D01*
X97495999Y-99304001D02*
X97495999Y-123704001D01*
X97900000Y-98700000D02*
X98000000Y-98600000D01*
X97600000Y-99000000D02*
X97514000Y-98914000D01*
X97514000Y-98914000D02*
X97514000Y-95486000D01*
X97495999Y-99104001D02*
X97600000Y-99000000D01*
X97600000Y-99000000D02*
X97900000Y-98700000D01*
X117980000Y-82820000D02*
X120560000Y-80240000D01*
X117980000Y-87620000D02*
X117980000Y-82820000D01*
X107647600Y-87620000D02*
X108800000Y-87620000D01*
X103100000Y-92167600D02*
X107647600Y-87620000D01*
X103100000Y-101100000D02*
X103100000Y-92167600D01*
X93520000Y-107017458D02*
X91000000Y-104497458D01*
X93520000Y-122800000D02*
X93520000Y-107017458D01*
X91000000Y-104497458D02*
X91000000Y-101400000D01*
X91000000Y-101400000D02*
X91000000Y-101400000D01*
X117160000Y-81100000D02*
X120560000Y-77700000D01*
X117160000Y-90160000D02*
X117160000Y-81100000D01*
X107647600Y-90160000D02*
X108800000Y-90160000D01*
X103800000Y-94007600D02*
X107647600Y-90160000D01*
X103800000Y-101800000D02*
X103800000Y-94007600D01*
X94955999Y-123904001D02*
X94955999Y-103044001D01*
X93520000Y-125340000D02*
X94955999Y-123904001D01*
X94955999Y-103044001D02*
X95600000Y-102400000D01*
X95600000Y-102400000D02*
X95600000Y-102400000D01*
X73380000Y-109720000D02*
X72000000Y-108340000D01*
X72000000Y-108340000D02*
X72000000Y-106400000D01*
X72000000Y-106400000D02*
X72000000Y-106200000D01*
X76320000Y-109720000D02*
X77600000Y-108440000D01*
X77600000Y-108440000D02*
X77600000Y-106000000D01*
X107647600Y-92700000D02*
X108800000Y-92700000D01*
X104600000Y-95747600D02*
X107647600Y-92700000D01*
X104600000Y-107200000D02*
X104600000Y-95747600D01*
X91004211Y-122775789D02*
X90980000Y-122800000D01*
X91004211Y-105795789D02*
X91004211Y-122775789D01*
X115141998Y-91941998D02*
X115141998Y-53643922D01*
X115900000Y-92700000D02*
X115141998Y-91941998D01*
X115141998Y-52141998D02*
X114400000Y-51400000D01*
X115141998Y-53643922D02*
X115141998Y-52141998D01*
X92415999Y-123904001D02*
X92415999Y-116784001D01*
X90980000Y-125340000D02*
X92415999Y-123904001D01*
X92415999Y-114815999D02*
X92415999Y-114815999D01*
X49804001Y-101724001D02*
X49804001Y-116795999D01*
X47600000Y-99520000D02*
X49804001Y-101724001D01*
X49804001Y-116795999D02*
X49804001Y-116795999D01*
X92415999Y-116784001D02*
X92415999Y-114815999D01*
X107647600Y-95240000D02*
X108800000Y-95240000D01*
X105400000Y-97487600D02*
X107647600Y-95240000D01*
X105400000Y-112600000D02*
X105400000Y-97487600D01*
X90258002Y-58598080D02*
X90258002Y-113941998D01*
X88600000Y-56940078D02*
X90258002Y-58598080D01*
X88600000Y-55960000D02*
X88600000Y-56940078D01*
X90200000Y-114000000D02*
X90200000Y-114800000D01*
X90258002Y-113941998D02*
X90200000Y-114000000D01*
X48654001Y-103114001D02*
X48654001Y-112454001D01*
X47600000Y-102060000D02*
X48654001Y-103114001D01*
X48654001Y-112454001D02*
X49200000Y-113000000D01*
X49200000Y-113000000D02*
X49200000Y-113000000D01*
X88340000Y-122700000D02*
X88440000Y-122800000D01*
X88340000Y-112260000D02*
X88340000Y-122700000D01*
X107647600Y-97780000D02*
X108800000Y-97780000D01*
X106200000Y-99227600D02*
X107647600Y-97780000D01*
X106200000Y-110400000D02*
X106200000Y-99227600D01*
X88340000Y-111765026D02*
X88340000Y-112260000D01*
X88340000Y-94833922D02*
X88340000Y-111765026D01*
X87545999Y-54474001D02*
X87545999Y-94039921D01*
X87545999Y-94039921D02*
X88340000Y-94833922D01*
X88600000Y-53420000D02*
X87545999Y-54474001D01*
X87335999Y-124235999D02*
X87335999Y-108864001D01*
X88440000Y-125340000D02*
X87335999Y-124235999D01*
X87335999Y-108864001D02*
X87335999Y-108864001D01*
X107647600Y-100320000D02*
X108800000Y-100320000D01*
X106935999Y-101031601D02*
X107647600Y-100320000D01*
X106935999Y-108864001D02*
X106935999Y-101031601D01*
X108674001Y-48740079D02*
X108674001Y-52365999D01*
X110658002Y-47964080D02*
X110343922Y-47650000D01*
X108674001Y-52365999D02*
X108419999Y-52620001D01*
X110658002Y-113635920D02*
X110658002Y-47964080D01*
X108419999Y-52620001D02*
X107620000Y-53420000D01*
X110343922Y-47650000D02*
X109764080Y-47650000D01*
X109089921Y-115204001D02*
X110658002Y-113635920D01*
X108510079Y-115204001D02*
X109089921Y-115204001D01*
X107545990Y-114239912D02*
X108510079Y-115204001D01*
X107545990Y-102456552D02*
X107545990Y-114239912D01*
X108800000Y-101202542D02*
X107545990Y-102456552D01*
X109764080Y-47650000D02*
X108674001Y-48740079D01*
X108800000Y-100320000D02*
X108800000Y-101202542D01*
X71765789Y-125539711D02*
X71765789Y-109965789D01*
X86099711Y-126774211D02*
X73000289Y-126774211D01*
X87004001Y-125869921D02*
X86099711Y-126774211D01*
X73000289Y-126774211D02*
X71765789Y-125539711D01*
X87004001Y-123904001D02*
X87004001Y-125869921D01*
X85900000Y-122800000D02*
X87004001Y-123904001D01*
X71765789Y-109965789D02*
X71300000Y-109500000D01*
X71300000Y-109500000D02*
X71200000Y-109400000D01*
X85900000Y-122800000D02*
X85800000Y-97600000D01*
X85800000Y-97600000D02*
X85800000Y-97600000D01*
X101700000Y-58500000D02*
X101700000Y-90100000D01*
X99400000Y-92400000D02*
X99400000Y-97800000D01*
X101700000Y-90100000D02*
X99400000Y-92400000D01*
X99400000Y-97800000D02*
X99400000Y-97800000D01*
X83365999Y-111165999D02*
X83365999Y-104834001D01*
X83365999Y-104834001D02*
X83365999Y-104834001D01*
X85050001Y-126189999D02*
X85900000Y-125340000D01*
X84795999Y-126444001D02*
X85050001Y-126189999D01*
X82830079Y-126444001D02*
X84795999Y-126444001D01*
X82255999Y-125869921D02*
X82830079Y-126444001D01*
X82255999Y-121176001D02*
X82255999Y-125869921D01*
X83016000Y-120416000D02*
X82255999Y-121176001D01*
X83016000Y-111515998D02*
X83016000Y-120416000D01*
X83365999Y-111165999D02*
X83016000Y-111515998D01*
X87034001Y-104834001D02*
X87034001Y-95234001D01*
X87034001Y-95234001D02*
X87034001Y-95234001D01*
X102304001Y-101495999D02*
X102304001Y-56710973D01*
X99374010Y-104425990D02*
X102304001Y-101495999D01*
X102304001Y-56710973D02*
X102304001Y-56710973D01*
X83905999Y-113211025D02*
X84000000Y-113117024D01*
X83905999Y-113705999D02*
X83905999Y-113211025D01*
X84000000Y-113117024D02*
X84000000Y-102400000D01*
X84000000Y-102400000D02*
X83800000Y-102200000D01*
X83800000Y-102200000D02*
X83800000Y-102200000D01*
X83360000Y-114251998D02*
X83905999Y-113705999D01*
X83360000Y-122800000D02*
X83360000Y-114251998D01*
X83450001Y-101850001D02*
X83450001Y-89149999D01*
X83800000Y-102200000D02*
X83450001Y-101850001D01*
X83450001Y-89149999D02*
X84000000Y-88600000D01*
X84000000Y-88600000D02*
X84000000Y-88600000D01*
X103180000Y-53420000D02*
X103180000Y-85780000D01*
X103180000Y-85780000D02*
X103180000Y-85780000D01*
X84545999Y-124154001D02*
X84545999Y-115854001D01*
X83360000Y-125340000D02*
X84545999Y-124154001D01*
X84545999Y-115854001D02*
X84545999Y-99454001D01*
X84545999Y-99454001D02*
X84545999Y-99454001D01*
X84545999Y-99454001D02*
X84545999Y-93854001D01*
X100800000Y-88800000D02*
X100200000Y-88800000D01*
X101054001Y-88545999D02*
X100800000Y-88800000D01*
X101054001Y-51934001D02*
X101054001Y-88545999D01*
X100000000Y-50880000D02*
X101054001Y-51934001D01*
X80200001Y-97819999D02*
X81000000Y-97020000D01*
X79945999Y-98074001D02*
X80200001Y-97819999D01*
X80820000Y-122800000D02*
X80820000Y-117620000D01*
X80820000Y-117620000D02*
X80820000Y-117620000D01*
X62040001Y-113019999D02*
X62840000Y-112220000D01*
X61785999Y-113274001D02*
X62040001Y-113019999D01*
X61785999Y-116585999D02*
X61785999Y-113274001D01*
X62800000Y-117600000D02*
X61785999Y-116585999D01*
X109952400Y-102860000D02*
X108800000Y-102860000D01*
X110054001Y-102961601D02*
X109952400Y-102860000D01*
X110054001Y-113345999D02*
X110054001Y-102961601D01*
X108800000Y-114600000D02*
X110054001Y-113345999D01*
X110054001Y-102961601D02*
X110054001Y-48254001D01*
X110054001Y-48254001D02*
X110054001Y-48254001D01*
X79945999Y-116745999D02*
X79945999Y-98074001D01*
X80820000Y-117620000D02*
X79945999Y-116745999D01*
X82500000Y-95980000D02*
X81000000Y-94480000D01*
X81669999Y-124490001D02*
X80820000Y-125340000D01*
X81924001Y-124235999D02*
X81669999Y-124490001D01*
X81924001Y-115930000D02*
X81924001Y-124235999D01*
X82600000Y-115254001D02*
X81924001Y-115930000D01*
X82600000Y-109800000D02*
X82600000Y-115254001D01*
X82600000Y-96080000D02*
X82500000Y-95980000D01*
X82600000Y-109800000D02*
X82600000Y-96080000D01*
X77999999Y-51679999D02*
X77200000Y-50880000D01*
X78584211Y-52264211D02*
X77999999Y-51679999D01*
X78584211Y-77944133D02*
X78584211Y-52264211D01*
X79856209Y-93336209D02*
X79856209Y-79216131D01*
X79856209Y-79216131D02*
X78584211Y-77944133D01*
X81000000Y-94480000D02*
X79856209Y-93336209D01*
X88600000Y-48340000D02*
X89654001Y-49394001D01*
X78280000Y-122800000D02*
X78280000Y-117520000D01*
X78280000Y-117520000D02*
X78280000Y-117480000D01*
X62840000Y-107140000D02*
X65200000Y-109500000D01*
X65200000Y-109500000D02*
X65200000Y-117400000D01*
X65200000Y-117400000D02*
X65200000Y-117400000D01*
X78280000Y-117520000D02*
X78280000Y-92080000D01*
X78280000Y-92080000D02*
X78280000Y-92080000D01*
X91740000Y-51480000D02*
X88600000Y-48340000D01*
X91740000Y-91940000D02*
X91740000Y-51480000D01*
X87647600Y-45800000D02*
X87545999Y-45901601D01*
X66000000Y-104600000D02*
X66000000Y-95200000D01*
X66000000Y-95200000D02*
X66000000Y-95200000D01*
X66000000Y-104600000D02*
X66000000Y-118000000D01*
X66000000Y-118000000D02*
X66000000Y-118000000D01*
X77000000Y-124060000D02*
X78280000Y-125340000D01*
X77000000Y-118000000D02*
X77000000Y-124060000D01*
X86548975Y-93145999D02*
X87200000Y-92494974D01*
X86054001Y-93145999D02*
X86548975Y-93145999D01*
X87200000Y-92494974D02*
X87200000Y-91600000D01*
X87647600Y-45800000D02*
X88600000Y-45800000D01*
X87200000Y-46247600D02*
X87647600Y-45800000D01*
X87200000Y-91600000D02*
X87200000Y-46247600D01*
X121359999Y-73419999D02*
X120560000Y-72620000D01*
X121614001Y-73674001D02*
X121359999Y-73419999D01*
X121614001Y-101745999D02*
X121614001Y-73674001D01*
X120560000Y-102800000D02*
X121614001Y-101745999D01*
X75574001Y-85374001D02*
X75574001Y-89374001D01*
X75574001Y-89374001D02*
X75574001Y-89374001D01*
X75574001Y-122634001D02*
X75740000Y-122800000D01*
X75574001Y-89374001D02*
X75574001Y-122634001D01*
X121359999Y-104540001D02*
X120560000Y-105340000D01*
X121944211Y-103955789D02*
X121359999Y-104540001D01*
X121944211Y-71464211D02*
X121944211Y-103955789D01*
X120560000Y-70080000D02*
X121944211Y-71464211D01*
X76844001Y-126444001D02*
X75740000Y-125340000D01*
X78809921Y-126444001D02*
X76844001Y-126444001D01*
X79435998Y-125817924D02*
X78809921Y-126444001D01*
X79435998Y-88264000D02*
X79435998Y-125817924D01*
X79085999Y-87914001D02*
X79435998Y-88264000D01*
X121359999Y-107080001D02*
X120560000Y-107880000D01*
X122274421Y-106165579D02*
X121359999Y-107080001D01*
X122274421Y-68123051D02*
X122274421Y-106165579D01*
X121691370Y-67540000D02*
X122274421Y-68123051D01*
X120560000Y-67540000D02*
X121691370Y-67540000D01*
X74800000Y-86000000D02*
X74800000Y-88600000D01*
X74049999Y-121950001D02*
X73200000Y-122800000D01*
X74450001Y-121549999D02*
X74049999Y-121950001D01*
X74450001Y-88949999D02*
X74450001Y-121549999D01*
X74800000Y-88600000D02*
X74450001Y-88949999D01*
X121359999Y-109620001D02*
X120560000Y-110420000D01*
X122604631Y-108375369D02*
X121359999Y-109620001D01*
X122604631Y-67044631D02*
X122604631Y-108375369D01*
X120560000Y-65000000D02*
X122604631Y-67044631D01*
X71395999Y-108202985D02*
X71395999Y-91604001D01*
X72095999Y-108902985D02*
X71395999Y-108202985D01*
X72095999Y-124235999D02*
X72095999Y-108902985D01*
X73200000Y-125340000D02*
X72095999Y-124235999D01*
X71395999Y-91604001D02*
X72200000Y-90800000D01*
X72200000Y-90800000D02*
X72200000Y-90800000D01*
X72200000Y-82960000D02*
X73380000Y-81780000D01*
X72200000Y-90800000D02*
X72200000Y-82960000D01*
X73220000Y-81620000D02*
X73380000Y-81780000D01*
X73220000Y-72380000D02*
X73220000Y-81620000D01*
X73220000Y-72380000D02*
X73220000Y-65420000D01*
X73220000Y-65420000D02*
X73220000Y-65420000D01*
X121359999Y-112160001D02*
X120560000Y-112960000D01*
X122934841Y-110585159D02*
X121359999Y-112160001D01*
X122934841Y-63703471D02*
X122934841Y-110585159D01*
X121691370Y-62460000D02*
X122934841Y-63703471D01*
X120560000Y-62460000D02*
X121691370Y-62460000D01*
X70560000Y-122700000D02*
X70660000Y-122800000D01*
X70560000Y-94440000D02*
X70560000Y-122700000D01*
X70560000Y-94440000D02*
X70560000Y-84440000D01*
X70560000Y-84440000D02*
X70560000Y-84440000D01*
X70560000Y-74440000D02*
X70560000Y-74440000D01*
X70560000Y-84440000D02*
X70560000Y-74440000D01*
X70600000Y-74400000D02*
X70560000Y-74440000D01*
X70600000Y-65600000D02*
X70600000Y-74400000D01*
X121359999Y-60719999D02*
X120560000Y-59920000D01*
X123265051Y-62625051D02*
X121359999Y-60719999D01*
X123265051Y-112794949D02*
X123265051Y-62625051D01*
X120560000Y-115500000D02*
X123265051Y-112794949D01*
X69555999Y-124235999D02*
X69555999Y-97155999D01*
X70660000Y-125340000D02*
X69555999Y-124235999D01*
X69555999Y-97155999D02*
X69555999Y-97155999D01*
X69555999Y-97155999D02*
X69555999Y-86844001D01*
X69555999Y-85044001D02*
X69600000Y-85000000D01*
X69555999Y-86844001D02*
X69555999Y-86844001D01*
X69600000Y-85000000D02*
X69600000Y-76800000D01*
X69600000Y-76800000D02*
X69600000Y-76800000D01*
X69555999Y-86844001D02*
X69555999Y-85044001D01*
X69600000Y-65800000D02*
X69400000Y-65600000D01*
X69600000Y-76800000D02*
X69600000Y-75400000D01*
X69600000Y-75400000D02*
X69600000Y-65800000D01*
X67400000Y-99400000D02*
X67400000Y-99400000D01*
X67400000Y-99400000D02*
X67014211Y-99014211D01*
X67014211Y-99014211D02*
X67014211Y-89985789D01*
X67014211Y-89985789D02*
X67400000Y-89600000D01*
X67400000Y-89600000D02*
X67400000Y-89600000D01*
X121359999Y-58179999D02*
X120560000Y-57380000D01*
X123595261Y-60415261D02*
X121359999Y-58179999D01*
X123595261Y-115004739D02*
X123595261Y-60415261D01*
X120560000Y-118040000D02*
X123595261Y-115004739D01*
X67050001Y-99749999D02*
X67400000Y-99400000D01*
X67050001Y-121730001D02*
X67050001Y-99749999D01*
X68120000Y-122800000D02*
X67050001Y-121730001D01*
X67050001Y-99250001D02*
X67050001Y-89949999D01*
X67200000Y-99400000D02*
X67050001Y-99250001D01*
X67050001Y-89949999D02*
X67400000Y-89600000D01*
X67400000Y-99400000D02*
X67200000Y-99400000D01*
X67400000Y-83200000D02*
X67400000Y-89600000D01*
X67400000Y-83200000D02*
X67400000Y-65600000D01*
X67400000Y-65600000D02*
X67400000Y-65600000D01*
X67800000Y-91800000D02*
X67800000Y-91800000D01*
X121359999Y-119780001D02*
X120560000Y-120580000D01*
X123925471Y-117214529D02*
X121359999Y-119780001D01*
X123925471Y-58205471D02*
X123925471Y-117214529D01*
X120560000Y-54840000D02*
X123925471Y-58205471D01*
X68125998Y-101974000D02*
X67775999Y-101624001D01*
X69224001Y-124235999D02*
X69224001Y-103072003D01*
X69224001Y-103072003D02*
X68125998Y-101974000D01*
X68120000Y-125340000D02*
X69224001Y-124235999D01*
X68149999Y-92149999D02*
X67800000Y-91800000D01*
X68149999Y-101250001D02*
X68149999Y-92149999D01*
X67775999Y-101624001D02*
X68149999Y-101250001D01*
X68149999Y-91450001D02*
X68149999Y-65850001D01*
X67800000Y-91800000D02*
X68149999Y-91450001D01*
X68149999Y-65850001D02*
X68400000Y-65600000D01*
X68400000Y-65600000D02*
X68400000Y-65600000D01*
X76400000Y-87000000D02*
X76400000Y-90600000D01*
X70250000Y-54750000D02*
X70260000Y-54750000D01*
X68000000Y-57000000D02*
X70250000Y-54750000D01*
X124400000Y-124400000D02*
X124400000Y-127200000D01*
X62040001Y-73320001D02*
X62840000Y-74120000D01*
X61350001Y-72630001D02*
X62040001Y-73320001D01*
X61350001Y-62189999D02*
X61350001Y-72630001D01*
X62200000Y-61340000D02*
X61350001Y-62189999D01*
X66684001Y-124235999D02*
X66684001Y-74484001D01*
X65580000Y-125340000D02*
X66684001Y-124235999D01*
X66684001Y-74484001D02*
X66684001Y-74484001D01*
X95000000Y-49560000D02*
X96220000Y-48340000D01*
X115745999Y-46854001D02*
X115745999Y-52145999D01*
X115745999Y-52145999D02*
X115745999Y-52145999D01*
X93800000Y-50760000D02*
X96220000Y-48340000D01*
X93800000Y-63200000D02*
X93800000Y-50760000D01*
X61604001Y-116870988D02*
X60000000Y-115266987D01*
X61604001Y-123904001D02*
X61604001Y-118995999D01*
X63040000Y-125340000D02*
X61604001Y-123904001D01*
X60000000Y-115266987D02*
X60000000Y-111800000D01*
X96204001Y-102110079D02*
X96204001Y-117995999D01*
X95165999Y-101072077D02*
X96204001Y-102110079D01*
X95165999Y-54474001D02*
X95165999Y-101072077D01*
X96220000Y-53420000D02*
X95165999Y-54474001D01*
X96204001Y-117995999D02*
X96000000Y-118200000D01*
X96000000Y-118200000D02*
X96000000Y-118400000D01*
X96000000Y-118400000D02*
X96000000Y-118400000D01*
X61604001Y-118995999D02*
X61604001Y-116870988D01*
X46468630Y-69040000D02*
X46200000Y-69308630D01*
X47600000Y-69040000D02*
X46468630Y-69040000D01*
X46200000Y-69308630D02*
X46200000Y-75200000D01*
X46200000Y-75200000D02*
X46400000Y-75400000D01*
X46400000Y-75400000D02*
X46400000Y-75400000D01*
X78254001Y-52914079D02*
X77539922Y-52200000D01*
X78254001Y-61545921D02*
X78254001Y-52914079D01*
X77004001Y-62795921D02*
X78254001Y-61545921D01*
X77004001Y-95995999D02*
X77004001Y-62795921D01*
X76400000Y-96600000D02*
X77004001Y-95995999D01*
X77539922Y-52200000D02*
X76000000Y-52200000D01*
X76000000Y-52200000D02*
X76000000Y-52200000D01*
X59395999Y-124235999D02*
X59395999Y-99204001D01*
X60500000Y-125340000D02*
X59395999Y-124235999D01*
X59395999Y-99204001D02*
X60600000Y-98000000D01*
X60600000Y-98000000D02*
X60600000Y-98000000D01*
X138604001Y-115235999D02*
X138604001Y-64161203D01*
X138604001Y-64161203D02*
X138095999Y-63653201D01*
X135800000Y-118040000D02*
X138604001Y-115235999D01*
X138095999Y-56044001D02*
X139400000Y-54740000D01*
X138095999Y-63653201D02*
X138095999Y-56044001D01*
X62840000Y-71580000D02*
X65330210Y-69089790D01*
X65330210Y-69089790D02*
X65330210Y-53069790D01*
X67000000Y-51400000D02*
X70750000Y-51400000D01*
X65330210Y-53069790D02*
X67000000Y-51400000D01*
X63639999Y-72379999D02*
X62840000Y-71580000D01*
X63894001Y-72634001D02*
X63639999Y-72379999D01*
X63894001Y-75605999D02*
X63894001Y-72634001D01*
X62840000Y-76660000D02*
X63894001Y-75605999D01*
D24*
X94299999Y-40000001D02*
X93500000Y-40800000D01*
X94604801Y-39695199D02*
X94299999Y-40000001D01*
X113784801Y-45784801D02*
X107695199Y-39695199D01*
X122184801Y-45784801D02*
X113784801Y-45784801D01*
X126400000Y-50000000D02*
X122184801Y-45784801D01*
X107695199Y-39695199D02*
X94604801Y-39695199D01*
D26*
X117814001Y-49965999D02*
X117814001Y-59985999D01*
X120560000Y-47220000D02*
X117814001Y-49965999D01*
X116555999Y-61244001D02*
X116555999Y-124444001D01*
X117814001Y-59985999D02*
X116555999Y-61244001D01*
X116555999Y-124444001D02*
X116555999Y-124555999D01*
X88600000Y-50880000D02*
X91000000Y-53280000D01*
X91000000Y-53280000D02*
X91000000Y-90200000D01*
X91000000Y-90200000D02*
X91000000Y-90200000D01*
X107620000Y-61040000D02*
X107620000Y-67020000D01*
X107620000Y-67020000D02*
X107620000Y-67380000D01*
X107620000Y-67380000D02*
X107620000Y-67580000D01*
X83765999Y-59554001D02*
X83765999Y-66765999D01*
X84820000Y-58500000D02*
X83765999Y-59554001D01*
X83765999Y-66765999D02*
X84400000Y-67400000D01*
X84400000Y-67400000D02*
X84400000Y-67400000D01*
X126600000Y-53600000D02*
X126600000Y-126000000D01*
X126600000Y-126000000D02*
X126600000Y-126000000D01*
X106565999Y-51934001D02*
X106565999Y-82434001D01*
X107620000Y-50880000D02*
X106565999Y-51934001D01*
X106565999Y-82434001D02*
X104000000Y-85000000D01*
X104000000Y-85000000D02*
X104000000Y-85000000D01*
X81000000Y-79200000D02*
X83200000Y-77000000D01*
X83200000Y-49960000D02*
X84820000Y-48340000D01*
X83200000Y-77000000D02*
X83200000Y-49960000D01*
X127355999Y-46577973D02*
X127355999Y-126355999D01*
X125511998Y-128200000D02*
X120560000Y-128200000D01*
X127355999Y-126355999D02*
X125511998Y-128200000D01*
X125458026Y-44680000D02*
X127355999Y-46577973D01*
X120560000Y-44680000D02*
X125458026Y-44680000D01*
M02*
