M48
; DRILL file {KiCad 5.1.5+dfsg1-2build2} date So 03 Okt 2021 17:03:20
; FORMAT={-:-/ absolute / inch / decimal}
; #@! TF.CreationDate,2021-10-03T17:03:20+02:00
; #@! TF.GenerationSoftware,Kicad,Pcbnew,5.1.5+dfsg1-2build2
; #@! TF.FileFunction,Plated,1,2,PTH
FMAT,2
INCH
T1C0.0138
T2C0.0315
T3C0.0362
T4C0.0394
T5C0.0433
T6C0.0512
T7C0.0917
%
G90
G05
T1
X1.8268Y-2.9685
X1.937Y-4.4488
X1.9608Y-4.5983
X1.9846Y-4.7556
X2.0646Y-4.5181
X2.1102Y-3.315
X2.1102Y-4.6614
X2.2283Y-2.2598
X2.3622Y-4.4016
X2.3858Y-3.8583
X2.4254Y-4.6849
X2.4724Y-4.6299
X2.5591Y-1.6299
X2.5669Y-4.622
X2.5921Y-2.967
X2.5984Y-3.748
X2.5984Y-4.1181
X2.5984Y-4.6457
X2.6254Y-2.9324
X2.6535Y-2.5827
X2.6535Y-3.2756
X2.6535Y-3.5276
X2.6535Y-3.9134
X2.6683Y-4.0009
X2.6693Y-3.6142
X2.6772Y-2.2441
X2.6929Y-2.5827
X2.7323Y-2.5827
X2.7384Y-3.4191
X2.7384Y-3.825
X2.7402Y-2.9685
X2.778Y-2.9307
X2.778Y-3.3244
X2.778Y-3.7181
X2.7795Y-2.5827
X2.8071Y-4.311
X2.8346Y-4.189
X2.8425Y-3.5748
X2.8827Y-2.5756
X2.8827Y-2.8496
X2.889Y-4.7709
X2.9449Y-3.3858
X2.9449Y-3.4882
X2.9754Y-3.3612
X2.9754Y-3.5187
X2.9921Y-2.0551
X3.0047Y-4.3197
X3.0079Y-3.4252
X3.0079Y-3.5669
X3.0079Y-3.8031
X3.0315Y-4.6457
X3.0551Y-4.1732
X3.0819Y-3.6252
X3.0819Y-4.6268
X3.1136Y-3.4612
X3.1819Y-4.6307
X3.189Y-3.1181
X3.252Y-4.3228
X3.2821Y-4.1273
X3.2821Y-4.3766
X3.2992Y-4.0236
X3.3034Y-4.4766
X3.3071Y-3.4882
X3.3228Y-2.6535
X3.3286Y-3.695
X3.3286Y-3.9155
X3.3286Y-4.5612
X3.378Y-3.8425
X3.388Y-3.6672
X3.4265Y-3.7494
X3.4265Y-4.1273
X3.4384Y-4.286
X3.478Y-4.4197
X3.5512Y-4.5197
X3.5827Y-3.5512
X3.5827Y-3.9921
X3.5828Y-4.1652
X3.6118Y-3.6197
X3.6384Y-4.5203
X3.6384Y-4.5978
X3.6929Y-2.4882
X3.7638Y-4.0315
X3.7795Y-4.6614
X3.8154Y-3.7917
X3.8391Y-3.7593
X3.8543Y-3.8858
X3.8819Y-3.7874
X3.8819Y-4.0472
X3.8819Y-4.1496
X3.9124Y-4.1113
X3.9134Y-3.8504
X3.937Y-3.1024
X3.9449Y-3.4961
X3.9554Y-4.8057
X4.0039Y-2.3031
X4.0277Y-2.2327
X4.0591Y-3.9803
X4.0622Y-2.1031
X4.0622Y-3.3772
X4.0866Y-4.0079
X4.0945Y-3.3465
X4.1181Y-4.2205
X4.1496Y-4.4331
X4.1811Y-4.3465
X4.2101Y-4.286
X4.237Y-2.6528
X4.2835Y-4.5118
X4.3328Y-1.8998
X4.4409Y-2.8504
X4.5039Y-2.0236
X4.5039Y-3.8504
X4.5569Y-1.8446
X4.5569Y-2.053
X4.563Y-3.6496
X4.5888Y-4.8994
X4.6126Y-3.5496
X4.6383Y-2.3617
X4.6449Y-3.4496
X4.6772Y-3.2677
X4.8976Y-4.8976
X4.8976Y-5.0079
X4.937Y-3.8504
X4.9764Y-1.9685
X4.9843Y-2.1102
X4.9843Y-4.9606
X5.0378Y-2.9591
X5.0378Y-4.7417
X5.0394Y-2.6142
X5.0709Y-3.5591
X5.0866Y-3.4567
X5.0998Y-3.853
X5.4016Y-3.3307
X5.4331Y-3.4094
T2
X2.7854Y-2.0236
X2.8854Y-2.0236
X4.4409Y-2.2441
X4.4409Y-2.4409
X3.4882Y-1.8031
X3.4882Y-1.9031
X3.4882Y-2.0031
X3.4882Y-2.1031
X3.4882Y-2.2031
X3.4882Y-2.3031
X3.4882Y-2.4031
X3.7882Y-1.8031
X3.7882Y-1.9031
X3.7882Y-2.0031
X3.7882Y-2.1031
X3.7882Y-2.2031
X3.7882Y-2.3031
X3.7882Y-2.4031
X2.6535Y-2.3543
X2.8504Y-2.3543
X1.874Y-2.6181
X1.874Y-2.7181
X1.874Y-2.8181
X1.874Y-2.9181
X1.874Y-3.0181
X1.874Y-3.1181
X1.874Y-3.2181
X1.874Y-3.3181
X1.874Y-3.4181
X1.874Y-3.5181
X1.874Y-3.6181
X1.874Y-3.7181
X1.874Y-3.8181
X1.874Y-3.9181
X1.874Y-4.0181
X1.874Y-4.1181
X1.874Y-4.2181
X1.874Y-4.3181
X1.874Y-4.4181
X1.874Y-4.5181
X2.474Y-2.6181
X2.474Y-2.7181
X2.474Y-2.8181
X2.474Y-2.9181
X2.474Y-3.0181
X2.474Y-3.1181
X2.474Y-3.2181
X2.474Y-3.3181
X2.474Y-3.4181
X2.474Y-3.5181
X2.474Y-3.6181
X2.474Y-3.7181
X2.474Y-3.8181
X2.474Y-3.9181
X2.474Y-4.0181
X2.474Y-4.1181
X2.474Y-4.2181
X2.474Y-4.3181
X2.474Y-4.4181
X2.474Y-4.5181
X3.6811Y-1.5063
X3.6811Y-1.6063
X3.8583Y-1.5063
X3.8583Y-1.6063
X2.315Y-2.9134
X2.315Y-3.1102
X5.5118Y-4.5433
X5.6118Y-4.5433
X3.0236Y-1.5693
X3.0236Y-1.6693
X3.3386Y-1.5984
X3.5354Y-1.5984
X3.0394Y-1.8031
X3.0394Y-1.9031
X3.0394Y-2.0031
X3.0394Y-2.1031
X3.0394Y-2.2031
X3.0394Y-2.3031
X3.0394Y-2.4031
X3.3394Y-1.8031
X3.3394Y-1.9031
X3.3394Y-2.0031
X3.3394Y-2.1031
X3.3394Y-2.2031
X3.3394Y-2.3031
X3.3394Y-2.4031
X2.7854Y-1.7638
X2.8854Y-1.7638
X2.5039Y-1.7087
X2.5039Y-1.8071
X4.7465Y-1.6591
X4.7465Y-1.7591
X4.7465Y-1.8591
X4.7465Y-1.9591
X4.7465Y-2.0591
X4.7465Y-2.1591
X4.7465Y-2.2591
X4.7465Y-2.3591
X4.7465Y-2.4591
X4.7465Y-2.5591
X4.7465Y-2.6591
X4.7465Y-2.7591
X4.7465Y-2.8591
X4.7465Y-2.9591
X4.7465Y-3.0591
X4.7465Y-3.1591
X4.7465Y-3.2591
X4.7465Y-3.3591
X4.7465Y-3.4591
X4.7465Y-3.5591
X5.3465Y-1.6591
X5.3465Y-1.7591
X5.3465Y-1.8591
X5.3465Y-1.9591
X5.3465Y-2.0591
X5.3465Y-2.1591
X5.3465Y-2.2591
X5.3465Y-2.3591
X5.3465Y-2.4591
X5.3465Y-2.5591
X5.3465Y-2.6591
X5.3465Y-2.7591
X5.3465Y-2.8591
X5.3465Y-2.9591
X5.3465Y-3.0591
X5.3465Y-3.1591
X5.3465Y-3.2591
X5.3465Y-3.3591
X5.3465Y-3.4591
X5.3465Y-3.5591
X4.1024Y-4.7165
X4.1024Y-4.9134
X4.0354Y-1.5063
X4.0354Y-1.6063
X2.889Y-3.2197
X2.889Y-3.3197
X2.889Y-3.4197
X2.889Y-3.5197
X2.889Y-3.6197
X2.889Y-3.7197
X2.889Y-3.8197
X2.889Y-3.9197
X2.889Y-4.0197
X2.889Y-4.1197
X2.889Y-4.2197
X2.889Y-4.3197
X2.889Y-4.4197
X2.889Y-4.5197
X3.189Y-3.2197
X3.189Y-3.3197
X3.189Y-3.4197
X3.189Y-3.5197
X3.189Y-3.6197
X3.189Y-3.7197
X3.189Y-3.8197
X3.189Y-3.9197
X3.189Y-4.0197
X3.189Y-4.1197
X3.189Y-4.2197
X3.189Y-4.3197
X3.189Y-4.4197
X3.189Y-4.5197
X2.7661Y-2.1555
X2.8661Y-2.1555
X5.5551Y-4.7795
X5.5551Y-4.9724
X2.9528Y-3.063
X3.1496Y-3.063
X2.7854Y-1.8976
X2.8854Y-1.8976
X4.2126Y-1.5063
X4.2126Y-1.6063
X2.5039Y-2.0039
X2.5039Y-2.1024
X4.5354Y-3.9528
X4.5354Y-4.1496
X5.1811Y-3.9843
X5.1811Y-4.1811
X1.9291Y-1.7638
X1.9291Y-2.3638
X2.2291Y-1.7638
X2.2291Y-2.3638
X4.7465Y-3.7472
X4.7465Y-3.8472
X4.7465Y-3.9472
X4.7465Y-4.0472
X4.7465Y-4.1472
X4.7465Y-4.2472
X4.7465Y-4.3472
X4.7465Y-4.4472
X4.7465Y-4.5472
X4.7465Y-4.6472
X4.7465Y-4.7472
X4.7465Y-4.8472
X4.7465Y-4.9472
X4.7465Y-5.0472
X5.3465Y-3.7472
X5.3465Y-3.8472
X5.3465Y-3.9472
X5.3465Y-4.0472
X5.3465Y-4.1472
X5.3465Y-4.2472
X5.3465Y-4.3472
X5.3465Y-4.4472
X5.3465Y-4.5472
X5.3465Y-4.6472
X5.3465Y-4.7472
X5.3465Y-4.8472
X5.3465Y-4.9472
X5.3465Y-5.0472
X5.5512Y-4.2047
X5.5512Y-4.4016
X4.8898Y-1.9921
X4.8898Y-2.189
X3.937Y-1.8031
X3.937Y-1.9031
X3.937Y-2.0031
X3.937Y-2.1031
X3.937Y-2.2031
X3.937Y-2.3031
X3.937Y-2.4031
X4.237Y-1.8031
X4.237Y-1.9031
X4.237Y-2.0031
X4.237Y-2.1031
X4.237Y-2.2031
X4.237Y-2.3031
X4.237Y-2.4031
T3
X2.3425Y-1.4488
X2.3425Y-1.5276
X2.4409Y-1.4488
X2.4409Y-1.5276
T4
X5.4882Y-2.3646
X5.4882Y-2.4646
X5.4882Y-2.0551
X5.4882Y-2.1551
X3.6835Y-2.8496
X3.6835Y-2.9496
X3.6835Y-3.0496
X3.6835Y-3.1496
X3.6835Y-3.2496
X3.6835Y-3.3496
X3.6835Y-3.4496
X3.6835Y-3.5496
X3.6835Y-3.6496
X3.6835Y-3.7496
X3.6835Y-3.8496
X3.6835Y-3.9496
X3.6835Y-4.0496
X3.6835Y-4.1496
X4.2835Y-2.8496
X4.2835Y-2.9496
X4.2835Y-3.0496
X4.2835Y-3.1496
X4.2835Y-3.2496
X4.2835Y-3.3496
X4.2835Y-3.4496
X4.2835Y-3.5496
X4.2835Y-3.6496
X4.2835Y-3.7496
X4.2835Y-3.8496
X4.2835Y-3.9496
X4.2835Y-4.0496
X4.2835Y-4.1496
X2.878Y-1.3307
X3.0551Y-1.3307
X2.2819Y-4.8346
X2.2819Y-4.9346
X2.3819Y-4.8346
X2.3819Y-4.9346
X2.4819Y-4.8346
X2.4819Y-4.9346
X2.5819Y-4.8346
X2.5819Y-4.9346
X2.6819Y-4.8346
X2.6819Y-4.9346
X2.7819Y-4.8346
X2.7819Y-4.9346
X2.8819Y-4.8346
X2.8819Y-4.9346
X2.9819Y-4.8346
X2.9819Y-4.9346
X3.0819Y-4.8346
X3.0819Y-4.9346
X3.1819Y-4.8346
X3.1819Y-4.9346
X3.2819Y-4.8346
X3.2819Y-4.9346
X3.3819Y-4.8346
X3.3819Y-4.9346
X3.4819Y-4.8346
X3.4819Y-4.9346
X3.5819Y-4.8346
X3.5819Y-4.9346
X3.6819Y-4.8346
X3.6819Y-4.9346
X3.7819Y-4.8346
X3.7819Y-4.9346
X3.8819Y-4.8346
X3.8819Y-4.9346
X1.8764Y-1.5669
X1.9764Y-1.5669
X5.5512Y-3.7402
X5.5512Y-3.8402
X5.5512Y-3.9402
X5.5512Y-4.0402
X4.5354Y-1.3409
X4.5354Y-1.4409
X4.6354Y-1.3409
X4.6354Y-1.4409
X4.7354Y-1.3409
X4.7354Y-1.4409
X4.8354Y-1.3409
X4.8354Y-1.4409
X4.9354Y-1.3409
X4.9354Y-1.4409
X5.0354Y-1.3409
X5.0354Y-1.4409
X5.1354Y-1.3409
X5.1354Y-1.4409
X5.2354Y-1.3409
X5.2354Y-1.4409
X5.3354Y-1.3409
X5.3354Y-1.4409
X2.4488Y-2.315
X2.4488Y-2.415
X3.2717Y-1.3307
X3.4488Y-1.3307
T5
X3.1969Y-1.5693
X3.1969Y-1.6693
T6
X3.2224Y-1.4291
X3.498Y-1.4291
X2.8287Y-1.4291
X3.1043Y-1.4291
T7
X2.1547Y-1.3421
X2.6287Y-1.3421
T0
M30
